<svg width="0" height="0" class="hidden">
  <symbol xmlns="http://www.w3.org/2000/svg" id="angle-right" viewBox="0 0 24 24">
    <path d="M7,24a1,1,0,0,1-.71-.29,1,1,0,0,1,0-1.42l8.17-8.17a3,3,0,0,0,0-4.24L6.29,1.71A1,1,0,0,1,7.71.29l8.17,8.17a5,5,0,0,1,0,7.08L7.71,23.71A1,1,0,0,1,7,24Z"></path>
  </symbol>
  <symbol xmlns="http://www.w3.org/2000/svg" id="angle-small-down" viewBox="0 0 24 24">
    <path d="M18.71,8.21a1,1,0,0,0-1.42,0l-4.58,4.58a1,1,0,0,1-1.42,0L6.71,8.21a1,1,0,0,0-1.42,0,1,1,0,0,0,0,1.41l4.59,4.59a3,3,0,0,0,4.24,0l4.59-4.59A1,1,0,0,0,18.71,8.21Z"></path>
  </symbol>
  <symbol xmlns="http://www.w3.org/2000/svg" xmlns:xlink="http://www.w3.org/1999/xlink" version="1.1" id="cross" x="0px" y="0px" xml:space="preserve" viewBox="0 0 512.021 512.021">
    <g>
      <path d="M301.258,256.01L502.645,54.645c12.501-12.501,12.501-32.769,0-45.269c-12.501-12.501-32.769-12.501-45.269,0l0,0   L256.01,210.762L54.645,9.376c-12.501-12.501-32.769-12.501-45.269,0s-12.501,32.769,0,45.269L210.762,256.01L9.376,457.376   c-12.501,12.501-12.501,32.769,0,45.269s32.769,12.501,45.269,0L256.01,301.258l201.365,201.387   c12.501,12.501,32.769,12.501,45.269,0c12.501-12.501,12.501-32.769,0-45.269L301.258,256.01z"></path>
    </g>
  </symbol>
  <symbol xmlns="http://www.w3.org/2000/svg" id="angle-small-right" viewBox="0 0 24 24">
    <path d="M15.4,9.88,10.81,5.29a1,1,0,0,0-1.41,0,1,1,0,0,0,0,1.42L14,11.29a1,1,0,0,1,0,1.42L9.4,17.29a1,1,0,0,0,1.41,1.42l4.59-4.59A3,3,0,0,0,15.4,9.88Z"></path>
  </symbol>
  <symbol xmlns="http://www.w3.org/2000/svg" id="arrow-small-left" viewBox="0 0 24 24">
    <path d="M19,11H9l3.29-3.29a1,1,0,0,0,0-1.42,1,1,0,0,0-1.41,0l-4.29,4.3A2,2,0,0,0,6,12H6a2,2,0,0,0,.59,1.4l4.29,4.3a1,1,0,1,0,1.41-1.42L9,13H19a1,1,0,0,0,0-2Z"></path>
  </symbol>
  <symbol version="1.0" xmlns="http://www.w3.org/2000/svg" preserveAspectRatio="xMidYMid meet" viewBox="0 0 512.000000 512.000000" id="cake">
    <g transform="translate(0.000000,512.000000) scale(0.100000,-0.100000)" fill="#000000" stroke="none">
      <path d="M2463 4961 c-83 -28 -209 -142 -312 -280 -59 -80 -139 -226 -161
-294 l-12 -38 -41 24 c-100 58 -247 94 -311 76 -77 -21 -122 -83 -150 -206
-23 -102 -19 -223 10 -315 4 -15 -1 -18 -29 -18 -55 0 -158 -36 -223 -78 -123
-80 -199 -206 -213 -357 l-6 -60 -390 -5 c-388 -5 -390 -5 -439 -29 -63 -31
-118 -86 -153 -153 l-28 -53 0 -535 0 -535 30 -54 c35 -63 91 -114 152 -137
l43 -17 0 -642 0 -642 23 -21 c61 -57 127 -5 127 99 l0 39 2180 0 2180 0 -2
-217 -3 -218 -2173 -3 -2173 -2 -16 37 c-27 65 -69 80 -117 42 -56 -44 -20
-162 63 -206 l44 -23 2197 0 2197 0 44 23 c27 15 52 38 66 63 l23 39 0 815 0
815 51 23 c63 30 124 90 153 151 21 45 21 55 21 571 l0 525 -26 56 c-33 69
-89 127 -155 160 -49 24 -51 24 -439 29 l-390 5 -6 60 c-14 151 -90 277 -213
357 -65 42 -168 78 -223 78 -27 0 -34 3 -29 15 16 43 28 157 23 224 -13 165
-72 275 -160 299 -65 18 -171 -5 -288 -64 l-67 -33 -17 47 c-51 136 -158 303
-266 413 -153 156 -261 197 -396 150z m160 -148 c41 -21 157 -132 213 -204 95
-123 161 -266 194 -417 22 -104 35 -232 26 -266 -6 -24 -7 -24 -99 -19 -146 9
-257 -26 -353 -110 l-44 -39 -46 41 c-95 83 -204 117 -351 108 l-93 -5 -6 25
c-11 41 14 234 42 330 49 169 134 313 263 447 116 120 180 148 254 109z m-798
-552 c33 -16 71 -37 84 -47 l23 -20 -12 -114 c-11 -101 -9 -171 6 -235 3 -14
-7 -29 -35 -53 l-40 -32 -37 34 c-21 19 -64 48 -96 63 -54 27 -58 31 -80 93
-36 102 -29 293 13 346 13 16 102 -2 174 -35z m1666 -19 c21 -71 17 -225 -8
-292 -18 -50 -26 -58 -81 -90 -33 -19 -77 -50 -97 -69 l-37 -33 -36 33 c-20
19 -38 34 -39 34 -1 1 2 32 8 69 8 50 8 100 -1 185 l-12 115 24 20 c59 48 227
104 254 84 6 -5 18 -30 25 -56z m-1846 -514 c28 -15 65 -42 84 -62 l34 -35
-17 -59 c-9 -32 -16 -72 -16 -88 0 -16 -3 -39 -6 -51 l-6 -23 -274 0 -274 0 0
44 c0 119 93 244 218 291 61 24 195 15 257 -17z m679 11 c31 -11 77 -39 103
-63 l47 -43 -17 -54 c-9 -30 -20 -80 -23 -111 l-7 -58 -273 0 c-150 0 -275 3
-277 8 -11 16 16 129 41 175 76 140 253 204 406 146z m710 0 c31 -11 77 -39
102 -63 l47 -42 -16 -48 c-9 -27 -20 -77 -23 -112 l-7 -64 -280 0 -280 0 7 53
c15 120 102 235 210 276 70 27 169 27 240 0z m731 -9 c102 -50 175 -154 183
-262 l4 -58 -80 0 c-75 0 -82 -2 -101 -26 -12 -15 -21 -33 -21 -40 0 -26 23
-62 47 -73 16 -8 181 -11 534 -11 420 0 515 -3 537 -14 36 -19 78 -65 91 -99
7 -19 11 -194 11 -509 0 -475 0 -481 -22 -519 -28 -50 -93 -84 -146 -75 -41 6
-76 29 -106 70 -20 26 -21 44 -26 334 l-5 307 -28 57 c-30 62 -74 105 -140
140 -62 33 -193 33 -257 0 -66 -34 -109 -79 -141 -147 l-29 -60 0 -530 c0
-494 -2 -533 -19 -571 -36 -79 -107 -110 -187 -79 -32 12 -53 29 -72 58 l-27
40 -5 306 c-6 352 -8 361 -101 445 -94 84 -229 100 -339 40 -93 -51 -146 -135
-157 -249 -7 -79 -30 -118 -84 -146 -76 -38 -151 -13 -191 64 -20 37 -23 62
-28 217 -5 166 -7 178 -33 232 -30 61 -74 105 -140 140 -61 33 -193 33 -257
-1 -100 -52 -155 -134 -170 -253 -12 -103 -59 -156 -141 -165 -90 -9 -152 53
-162 160 -15 162 -124 274 -277 285 -89 6 -154 -16 -219 -74 -27 -24 -60 -66
-73 -92 -23 -46 -23 -52 -28 -477 -4 -383 -7 -433 -22 -462 -58 -105 -208
-105 -266 0 -15 28 -18 73 -22 337 l-5 305 -27 51 c-94 178 -319 218 -472 83
-47 -41 -83 -119 -95 -205 -11 -84 -30 -118 -82 -145 -50 -25 -85 -24 -139 4
-82 42 -80 25 -80 574 0 316 4 491 11 510 11 31 53 78 84 96 15 9 437 13 1653
17 l1634 5 19 24 c25 31 24 69 -3 98 -20 22 -29 23 -141 23 l-120 0 7 57 c15
132 107 242 236 284 14 5 61 7 105 6 61 -2 92 -8 130 -27z m675 -919 c19 -10
44 -34 55 -52 18 -31 20 -57 25 -339 5 -298 6 -306 29 -354 31 -62 84 -116
144 -145 l47 -23 0 -59 0 -59 -260 0 -260 0 0 473 c0 453 1 473 20 505 42 68
129 91 200 53z m-2711 -241 c47 -24 81 -87 81 -151 0 -59 46 -155 95 -198 63
-55 119 -76 205 -76 165 0 277 107 299 284 5 39 17 83 26 97 57 87 197 83 250
-7 17 -29 21 -59 26 -204 6 -193 21 -249 85 -324 57 -66 123 -95 214 -96 85 0
142 21 203 74 50 44 97 141 97 200 0 63 35 129 80 153 71 37 159 14 200 -54
18 -30 20 -51 20 -260 l0 -228 -1050 0 -1050 0 0 353 c0 334 1 354 20 385 42
69 125 90 199 52z m-901 -250 c18 -11 41 -34 52 -52 18 -30 20 -51 20 -260 l0
-228 -260 0 -260 0 0 59 0 59 54 26 c95 47 151 129 165 246 5 39 17 84 28 101
37 65 136 89 201 49z m107 -744 c71 -149 251 -215 397 -143 65 32 122 90 150
153 l19 44 1059 0 1060 0 25 -50 c36 -72 79 -116 143 -147 149 -73 335 -3 403
153 l20 44 264 0 265 0 0 -165 0 -165 -1490 0 -1491 0 -24 -25 c-31 -30 -32
-71 -3 -102 l21 -23 1494 0 1493 0 0 -135 0 -135 -2180 0 -2180 0 0 135 0 135
550 0 551 0 26 26 c20 20 24 31 19 57 -13 65 19 62 -591 65 l-555 2 0 165 0
165 265 0 264 0 26 -54z"></path>
      <path d="M2514 4657 c-53 -46 -23 -127 46 -127 69 0 99 81 46 127 -15 12 -36
23 -46 23 -10 0 -31 -11 -46 -23z"></path>
      <path d="M2365 4375 c-14 -13 -25 -36 -25 -50 0 -33 42 -75 75 -75 33 0 75 42
75 75 0 33 -42 75 -75 75 -14 0 -37 -11 -50 -25z"></path>
      <path d="M2655 4375 c-14 -13 -25 -36 -25 -50 0 -14 11 -37 25 -50 13 -14 36
-25 50 -25 14 0 37 11 50 25 14 13 25 36 25 50 0 14 -11 37 -25 50 -13 14 -36
25 -50 25 -14 0 -37 -11 -50 -25z"></path>
      <path d="M2217 4103 c-8 -10 -19 -30 -22 -45 -6 -22 -1 -33 24 -59 26 -25 37
-30 59 -24 15 3 35 14 45 22 23 22 22 78 -3 103 -25 25 -81 26 -103 3z"></path>
      <path d="M2509 4102 c-29 -24 -30 -75 -1 -104 46 -47 126 -12 124 54 -2 60
-73 90 -123 50z"></path>
      <path d="M2800 4100 c-25 -25 -26 -81 -2 -103 9 -8 29 -19 44 -22 22 -6 33 -1
59 24 25 26 30 37 24 59 -3 15 -14 35 -22 45 -22 23 -78 22 -103 -3z"></path>
    </g>
  </symbol>
  <symbol version="1.0" xmlns="http://www.w3.org/2000/svg" preserveAspectRatio="xMidYMid meet" viewBox="0 0 512.000000 512.000000" id="muffin">
    <g transform="translate(0.000000,512.000000) scale(0.100000,-0.100000)" fill="#000000" stroke="none">
      <path d="M2409 4259 c-474 -30 -931 -236 -1223 -551 -78 -83 -176 -218 -215
-295 -12 -24 -27 -43 -35 -43 -37 0 -165 -78 -221 -134 -255 -259 -183 -686
142 -843 l79 -38 116 -569 c105 -514 120 -577 154 -644 66 -135 198 -240 345
-274 42 -10 273 -13 1004 -13 894 0 954 1 1010 18 160 50 277 151 341 295 16
34 66 257 140 620 63 311 116 567 117 567 1 1 23 9 50 19 144 54 260 178 313
336 28 83 26 234 -5 323 -28 84 -88 174 -149 227 -45 39 -172 110 -197 110 -6
0 -36 41 -66 91 -152 257 -400 477 -694 615 -213 100 -457 164 -672 179 -180
12 -211 12 -334 4z m330 -144 c381 -26 779 -203 1042 -465 114 -114 144 -153
230 -299 54 -94 56 -95 110 -111 68 -21 93 -34 147 -78 219 -176 173 -522 -87
-649 -50 -25 -67 -28 -156 -28 -91 0 -106 3 -165 31 -41 20 -85 52 -120 88
-74 76 -96 76 -170 0 -164 -169 -420 -164 -577 11 -57 63 -79 61 -159 -15 -35
-34 -89 -73 -121 -88 -51 -24 -70 -27 -158 -27 -88 0 -107 3 -158 27 -32 15
-86 54 -121 88 -80 76 -102 78 -159 15 -157 -175 -413 -180 -577 -11 -74 76
-96 76 -170 0 -35 -36 -79 -68 -120 -88 -59 -28 -74 -31 -165 -31 -89 0 -106
3 -156 28 -88 43 -143 98 -186 185 -36 71 -38 82 -38 166 0 78 4 100 27 149
15 32 37 72 49 88 32 45 112 105 166 124 26 10 60 22 75 27 20 7 39 32 69 87
239 443 750 743 1329 781 112 7 148 6 319 -5z m-1232 -1672 c98 -75 220 -110
351 -100 116 8 196 41 317 131 9 6 26 -1 53 -22 53 -42 153 -89 221 -103 78
-16 213 -6 284 21 32 12 88 42 125 66 l66 45 26 -21 c48 -38 125 -80 180 -98
86 -27 247 -24 330 7 54 20 130 63 185 105 7 5 31 -6 66 -33 64 -49 139 -79
232 -94 37 -6 67 -16 67 -22 0 -5 -47 -244 -106 -530 -80 -393 -112 -535 -134
-582 -54 -117 -160 -194 -293 -214 -86 -12 -1774 -11 -1861 1 -128 19 -240
101 -291 213 -16 34 -62 239 -133 587 l-109 535 61 7 c34 4 88 17 121 29 60
22 157 78 169 98 11 17 23 13 73 -26z"></path>
      <path d="M1500 2135 l-24 -26 79 -400 c58 -290 85 -406 98 -420 35 -37 117
-11 117 39 0 9 -34 190 -76 402 -82 411 -88 430 -144 430 -15 0 -36 -11 -50
-25z"></path>
      <path d="M1989 2141 c-16 -13 -23 -29 -23 -52 0 -19 25 -203 54 -408 58 -406
60 -411 120 -411 34 0 70 30 70 58 0 44 -111 784 -120 801 -18 35 -65 41 -101
12z"></path>
      <path d="M2512 2137 c-22 -23 -22 -26 -22 -425 0 -389 1 -403 20 -422 11 -11
33 -20 50 -20 17 0 39 9 50 20 19 19 20 33 20 423 l0 404 -23 21 c-30 28 -68
28 -95 -1z"></path>
      <path d="M3037 2138 c-21 -21 -28 -61 -76 -393 -29 -203 -53 -385 -53 -403 -1
-42 26 -72 67 -72 59 0 61 5 122 438 l58 401 -24 25 c-30 32 -65 33 -94 4z"></path>
      <path d="M3521 2143 c-18 -15 -34 -80 -101 -418 -79 -396 -80 -400 -62 -425
24 -32 81 -39 104 -13 16 18 168 747 168 806 0 56 -65 86 -109 50z"></path>
    </g>
  </symbol>
  <symbol xmlns="http://www.w3.org/2000/svg" id="downloadbut" viewBox="0 0 24 24">
    <path d="M9.878,18.122a3,3,0,0,0,4.244,0l3.211-3.211A1,1,0,0,0,15.919,13.5l-2.926,2.927L13,1a1,1,0,0,0-1-1h0a1,1,0,0,0-1,1l-.009,15.408L8.081,13.5a1,1,0,0,0-1.414,1.415Z"></path>
    <path d="M23,16h0a1,1,0,0,0-1,1v4a1,1,0,0,1-1,1H3a1,1,0,0,1-1-1V17a1,1,0,0,0-1-1H1a1,1,0,0,0-1,1v4a3,3,0,0,0,3,3H21a3,3,0,0,0,3-3V17A1,1,0,0,0,23,16Z"></path>
  </symbol>
  <symbol xmlns="http://www.w3.org/2000/svg" xmlns:xlink="http://www.w3.org/1999/xlink" version="1.1" id="whatsapp" x="0px" y="0px" xml:space="preserve" viewBox="0 0 24 24">
    <g id="WA_Logo">
      <g>
        <path d="M20.463,3.488C18.217,1.24,15.231,0.001,12.05,0    C5.495,0,0.16,5.334,0.157,11.892c-0.001,2.096,0.547,4.142,1.588,5.946L0.057,24l6.304-1.654    c1.737,0.948,3.693,1.447,5.683,1.448h0.005c6.554,0,11.89-5.335,11.893-11.893C23.944,8.724,22.708,5.735,20.463,3.488z     M12.05,21.785h-0.004c-1.774,0-3.513-0.477-5.031-1.378l-0.361-0.214l-3.741,0.981l0.999-3.648l-0.235-0.374    c-0.99-1.574-1.512-3.393-1.511-5.26c0.002-5.45,4.437-9.884,9.889-9.884c2.64,0,5.122,1.03,6.988,2.898    c1.866,1.869,2.893,4.352,2.892,6.993C21.932,17.351,17.498,21.785,12.05,21.785z M17.472,14.382    c-0.297-0.149-1.758-0.868-2.031-0.967c-0.272-0.099-0.47-0.149-0.669,0.148s-0.767,0.967-0.941,1.166    c-0.173,0.198-0.347,0.223-0.644,0.074c-0.297-0.149-1.255-0.462-2.39-1.475c-0.883-0.788-1.48-1.761-1.653-2.059    s-0.018-0.458,0.13-0.606c0.134-0.133,0.297-0.347,0.446-0.521C9.87,9.97,9.919,9.846,10.019,9.647    c0.099-0.198,0.05-0.372-0.025-0.521C9.919,8.978,9.325,7.515,9.078,6.92c-0.241-0.58-0.486-0.501-0.669-0.51    C8.236,6.401,8.038,6.4,7.839,6.4c-0.198,0-0.52,0.074-0.792,0.372c-0.272,0.298-1.04,1.017-1.04,2.479    c0,1.463,1.065,2.876,1.213,3.074c0.148,0.198,2.095,3.2,5.076,4.487c0.709,0.306,1.263,0.489,1.694,0.626    c0.712,0.226,1.36,0.194,1.872,0.118c0.571-0.085,1.758-0.719,2.006-1.413c0.248-0.694,0.248-1.29,0.173-1.413    C17.967,14.605,17.769,14.531,17.472,14.382z"></path>
      </g>
    </g>
  </symbol>
  <symbol xmlns="http://www.w3.org/2000/svg" id="menu" viewBox="0 0 24 24">
    <rect y="11" width="24" height="2" rx="1"></rect>
    <rect y="4" width="24" height="2" rx="1"></rect>
    <rect y="18" width="24" height="2" rx="1"></rect>
  </symbol>
  <symbol xmlns="http://www.w3.org/2000/svg" viewBox="0 0 50 2" id="line">
    <path fill="#63c3ef" d="M0 0h50v2H0z"></path>
  </symbol>
  <symbol version="1.0" xmlns="http://www.w3.org/2000/svg" preserveAspectRatio="xMidYMid meet" viewBox="0 0 512.000000 512.000000" id="welcome-_1_">
    <g transform="translate(0.000000,512.000000) scale(0.100000,-0.100000)" fill="#000000" stroke="none">
      <path d="M2120 4791 c-68 -21 -163 -104 -192 -167 -11 -23 -16 -25 -48 -20
-19 3 -51 6 -70 6 l-35 0 0 61 c0 56 -2 63 -34 91 -31 27 -39 30 -87 26 -73
-6 -144 -54 -269 -183 -55 -56 -118 -114 -141 -128 l-41 -25 -63 31 c-50 25
-80 33 -137 36 -67 3 -80 0 -138 -28 -35 -18 -79 -49 -97 -69 -18 -21 -59 -50
-90 -66 -99 -47 -134 -113 -126 -236 12 -166 127 -245 302 -209 l73 15 17
-156 c31 -294 31 -301 8 -340 -31 -53 -36 -109 -17 -182 21 -83 66 -157 143
-233 59 -59 61 -63 39 -69 -39 -9 -114 -84 -141 -139 -52 -108 -58 -266 -16
-383 28 -74 28 -83 1 -229 -40 -218 -27 -455 35 -625 13 -37 24 -70 24 -74 0
-18 -46 -2 -76 28 -43 42 -95 67 -150 74 -54 6 -149 -22 -169 -50 -24 -35 -19
-85 11 -115 23 -23 31 -25 81 -20 48 5 54 4 48 -11 -38 -95 21 -192 115 -192
41 0 92 28 116 65 18 28 45 33 63 11 8 -9 14 -106 18 -299 l6 -285 -70 -21
c-99 -30 -206 -85 -242 -127 -78 -88 0 -194 166 -225 106 -20 365 1 525 44
l48 12 174 294 173 294 179 4 c99 2 194 5 211 6 33 2 33 1 210 -298 l178 -300
70 -17 c185 -47 451 -60 556 -29 82 25 144 88 142 147 -2 67 -99 139 -258 190
l-70 22 -3 377 -2 377 34 86 c52 130 69 225 69 382 0 232 -42 403 -169 696 -3
6 27 30 65 53 158 94 285 217 375 364 41 67 42 68 116 93 110 37 188 82 250
144 95 96 138 209 111 291 -6 19 -29 56 -51 83 -22 26 -40 56 -40 67 0 10 -11
31 -24 46 -21 24 -32 28 -73 27 -54 -1 -106 -24 -198 -88 -59 -41 -106 -66
-125 -66 -6 0 -10 13 -10 28 0 15 -10 48 -22 72 -30 58 -78 84 -129 70 -48
-13 -64 -34 -84 -105 -33 -120 -55 -164 -109 -212 -106 -96 -210 -148 -320
-159 -96 -10 -97 -9 -68 78 36 108 41 234 13 328 -19 60 -31 82 -74 124 -37
37 -66 56 -99 65 l-46 13 -95 202 -94 201 71 5 c110 9 207 67 253 153 40 75
13 214 -52 266 -34 26 -101 36 -160 23 -37 -8 -57 -7 -88 4 -42 15 -135 17
-177 5z m145 -60 c54 -25 107 -83 150 -161 19 -36 35 -60 35 -53 0 38 -25 117
-51 158 -17 26 -28 50 -25 53 12 12 103 12 125 0 39 -21 62 -69 62 -133 1 -48
-4 -64 -29 -98 -90 -124 -279 -140 -387 -32 -49 49 -68 98 -63 161 2 24 0 44
-4 44 -11 0 -48 -57 -48 -75 0 -12 -5 -15 -16 -11 -9 3 -22 6 -30 6 -23 0 39
84 83 112 81 51 134 59 198 29z m-552 -22 c27 -37 16 -77 -40 -139 l-45 -50
31 0 c22 0 35 -7 47 -25 15 -23 15 -27 0 -50 -18 -27 -96 -55 -155 -55 -34 -1
-35 -2 -17 -15 26 -20 128 -20 166 0 62 32 85 92 55 145 -8 14 -14 29 -15 34
0 13 164 0 230 -18 39 -11 61 -23 75 -43 34 -47 101 -109 133 -124 27 -11 44
-42 140 -249 108 -230 111 -235 144 -241 237 -40 251 -429 24 -699 -90 -108
-216 -195 -360 -251 -113 -43 -294 -79 -414 -81 -98 -2 -100 -1 -178 39 -98
51 -201 83 -265 83 -43 0 -58 6 -105 41 -63 48 -123 119 -156 187 -33 67 -33
177 0 222 l23 31 -25 246 -26 246 45 40 c25 22 57 61 70 87 27 54 49 163 43
216 -4 32 1 40 41 76 25 22 71 54 102 71 31 17 67 46 79 65 35 51 177 180 234
213 60 34 92 34 119 -2z m-616 -264 c42 -17 42 -17 25 -40 -14 -20 -19 -21
-32 -10 -8 7 -28 17 -45 21 -29 7 -29 6 -13 -12 81 -92 51 -301 -56 -385 -74
-58 -228 -79 -293 -39 -61 37 -87 106 -77 200 6 48 12 60 49 96 23 22 52 43
64 47 20 5 21 2 21 -57 0 -60 13 -121 31 -140 4 -5 8 32 8 81 -1 133 34 206
116 245 48 23 137 20 202 -7z m2235 -735 c12 -22 18 -58 18 -97 0 -35 2 -63 4
-63 20 0 174 76 211 105 118 90 203 105 219 40 9 -35 -17 -80 -64 -111 -22
-15 -40 -28 -40 -30 0 -2 13 -4 30 -4 21 0 43 12 71 37 l41 37 24 -29 c32 -40
38 -80 21 -137 -29 -94 -109 -179 -222 -235 -100 -50 -161 -66 -221 -59 -62 7
-72 -8 -28 -43 l26 -21 -43 -67 c-79 -122 -238 -267 -366 -331 -43 -22 -53
-18 -53 25 0 21 -129 149 -157 156 -29 7 -29 3 2 -37 14 -18 25 -36 25 -39 0
-4 -17 -7 -37 -7 -21 0 -72 -9 -113 -20 -41 -11 -92 -20 -114 -20 -33 0 -37 3
-31 18 4 9 10 42 12 72 5 72 -19 114 -76 131 -62 19 -84 7 -150 -80 -72 -94
-92 -110 -191 -147 -66 -24 -89 -28 -195 -28 -115 -1 -123 0 -185 31 l-65 31
40 1 c22 1 81 8 130 16 326 53 580 196 715 401 l45 69 85 0 c140 1 256 50 381
164 66 59 96 112 124 211 26 96 30 102 73 98 31 -2 40 -9 54 -38z m-849 -802
c22 -26 21 -59 -3 -128 -11 -30 -19 -58 -20 -62 0 -14 164 -8 214 7 84 26 181
31 211 11 61 -40 13 -111 -92 -135 l-38 -8 27 -13 c27 -13 58 -8 123 17 16 6
31 -73 21 -112 -11 -44 -75 -103 -150 -140 -90 -44 -198 -61 -312 -47 l-79 10
-35 -33 c-173 -160 -511 -259 -772 -226 -347 44 -589 267 -589 542 -1 211 92
322 266 320 108 -1 208 -41 390 -155 49 -31 113 -64 143 -72 116 -34 297 -13
422 49 53 26 78 48 139 120 78 94 94 100 134 55z m545 -483 c119 -323 126
-679 18 -893 -24 -47 -24 -48 -28 -460 l-3 -413 40 -10 c173 -43 295 -113 295
-169 0 -29 -63 -76 -121 -91 -101 -26 -299 -15 -491 28 l-66 14 -164 276 c-90
152 -164 280 -166 283 -1 3 24 14 55 24 87 27 149 62 193 108 59 60 50 74 -19
29 -74 -47 -194 -87 -319 -106 -127 -19 -356 -19 -467 0 -97 17 -219 61 -261
94 -39 30 -43 17 -7 -27 35 -43 155 -108 220 -118 24 -3 46 -10 49 -15 7 -13
-306 -538 -328 -550 -36 -19 -213 -49 -334 -55 -166 -9 -280 20 -320 81 -15
23 -15 27 0 50 9 14 34 37 56 51 40 27 221 94 253 94 16 0 17 25 17 380 l0
380 -41 82 c-88 174 -119 407 -85 638 21 138 26 151 49 116 25 -37 150 -128
235 -171 126 -63 204 -78 392 -79 124 -1 186 4 250 17 151 32 340 120 439 203
36 30 37 31 133 26 120 -5 214 10 298 50 82 40 161 117 179 176 7 24 14 42 16
40 2 -2 17 -39 33 -83z m-2204 -886 c21 -6 59 -30 85 -53 35 -33 56 -45 91
-49 50 -6 70 -26 70 -69 0 -25 -2 -27 -19 -18 -11 5 -33 10 -50 10 -25 0 -31
-4 -31 -21 0 -11 -13 -34 -29 -50 -48 -48 -110 -36 -131 25 -8 25 -8 40 1 60
16 34 31 29 45 -14 13 -40 26 -47 44 -25 19 23 -5 71 -54 107 -39 28 -45 29
-108 23 -72 -7 -84 0 -74 40 9 36 89 54 160 34z"></path>
      <path d="M1905 4380 c-43 -17 -95 -99 -95 -150 0 -32 22 -24 68 25 40 42 45
45 95 45 32 0 75 -10 112 -25 70 -29 75 -30 75 -11 0 18 -79 82 -132 106 -45
21 -90 24 -123 10z"></path>
      <path d="M1295 4201 c-17 -10 -43 -32 -57 -49 -26 -31 -68 -128 -68 -157 0
-31 20 -23 49 18 16 24 48 60 70 80 46 42 91 48 154 22 28 -12 37 -12 46 -2 8
10 1 22 -27 50 -61 59 -114 71 -167 38z"></path>
      <path d="M1932 4115 c-104 -87 -20 -325 115 -325 81 0 124 95 93 205 -15 53
-25 62 -46 41 -21 -21 -57 -20 -77 2 -19 20 -23 67 -7 77 20 12 10 25 -19 25
-17 0 -42 -11 -59 -25z"></path>
      <path d="M1408 3945 c-16 -9 -33 -32 -43 -60 -57 -148 100 -340 208 -255 53
42 60 145 17 231 -22 41 -22 42 -34 18 -17 -35 -60 -47 -85 -25 -28 26 -32 53
-9 81 l19 25 -23 0 c-13 -1 -35 -7 -50 -15z"></path>
      <path d="M2005 3762 c66 -39 118 -94 118 -125 0 -34 -27 -70 -86 -115 -83 -63
-93 -67 -202 -67 -106 0 -158 14 -175 46 -28 52 4 154 77 239 37 44 37 44 7
23 -84 -59 -144 -155 -144 -229 0 -40 5 -51 35 -79 22 -21 53 -37 86 -45 44
-11 49 -14 33 -23 -41 -22 -64 -51 -64 -82 0 -75 99 -209 185 -250 22 -10 66
-21 98 -23 49 -4 67 0 121 27 69 34 108 76 131 142 25 71 16 176 -19 222 -10
12 -39 23 -85 31 l-71 11 42 40 c45 44 68 89 68 134 0 36 -43 82 -109 115 -71
36 -102 41 -46 8z"></path>
      <path d="M1899 3681 c18 -33 71 -71 100 -71 51 0 68 42 30 75 -16 16 -25 17
-48 8 -17 -6 -35 -7 -42 -2 -8 5 -22 9 -32 9 -14 0 -16 -4 -8 -19z"></path>
      <path d="M1835 3656 c-14 -19 -36 -37 -49 -40 -32 -8 -40 -33 -21 -62 19 -30
48 -31 75 -2 31 34 54 138 31 138 -6 0 -22 -15 -36 -34z"></path>
      <path d="M2145 3010 c-28 -31 -99 -53 -150 -48 -38 5 -44 3 -34 -8 6 -8 28
-19 49 -25 50 -15 121 15 145 61 20 38 15 48 -10 20z"></path>
      <path d="M2295 1910 c-17 -7 -15 -9 13 -9 104 -3 111 -160 9 -190 -32 -9 -32
-9 12 -10 36 -1 48 4 77 33 24 24 34 43 34 65 0 83 -76 141 -145 111z"></path>
      <path d="M2786 4641 c-25 -27 -76 -193 -76 -245 0 -83 44 -83 146 0 l51 41 -5
-78 c-5 -81 4 -109 34 -109 41 0 204 204 204 255 0 54 -69 33 -110 -34 -46
-76 -45 -76 -42 3 4 76 -8 116 -33 116 -7 0 -41 -26 -74 -58 -34 -32 -61 -57
-61 -57 12 30 30 107 30 130 0 52 -33 71 -64 36z"></path>
      <path d="M3192 4460 c-39 -24 -87 -97 -96 -145 -9 -45 9 -109 36 -135 29 -27
75 -34 122 -18 81 27 81 84 1 79 -46 -2 -75 11 -75 33 0 7 14 10 40 8 113 -11
183 96 111 169 -36 35 -90 39 -139 9z m93 -69 c7 -13 -23 -41 -44 -41 -27 0
-33 12 -14 32 17 19 48 24 58 9z"></path>
      <path d="M3478 4447 c-39 -37 -78 -103 -109 -187 -38 -105 -46 -162 -24 -184
28 -28 55 0 93 95 18 46 49 119 68 161 51 111 36 174 -28 115z"></path>
      <path d="M3575 4295 c-50 -33 -82 -79 -102 -144 -17 -60 -5 -122 30 -146 52
-36 162 -2 155 49 -3 19 -8 21 -55 18 l-53 -3 0 31 c0 39 22 82 56 109 38 30
47 27 40 -13 -8 -39 11 -61 44 -51 25 8 40 42 40 90 0 77 -82 108 -155 60z"></path>
      <path d="M3814 4210 c-27 -11 -83 -76 -100 -116 -8 -19 -14 -59 -14 -89 0 -49
4 -60 29 -86 22 -22 39 -29 67 -29 132 0 224 258 113 315 -31 16 -63 18 -95 5z
m54 -129 c-7 -74 -66 -143 -84 -97 -14 38 40 146 73 146 13 0 15 -9 11 -49z"></path>
      <path d="M4027 4111 c-35 -43 -89 -177 -91 -229 -1 -33 4 -47 17 -56 15 -9 22
-7 37 12 11 13 25 43 31 65 11 43 53 107 70 107 17 0 9 -48 -17 -107 -31 -72
-36 -126 -12 -131 22 -4 43 20 94 111 38 67 74 98 74 64 0 -7 -16 -50 -36 -96
-45 -104 -36 -147 22 -107 25 18 77 121 99 200 23 77 11 110 -38 104 -17 -3
-40 -8 -49 -13 -15 -6 -18 -2 -18 18 0 51 -39 66 -104 41 -14 -5 -17 -4 -12 5
9 14 -11 41 -29 41 -7 0 -24 -13 -38 -29z"></path>
      <path d="M4410 3962 c-19 -10 -49 -40 -67 -66 -77 -113 -39 -246 71 -246 55 0
108 33 104 63 -3 19 -9 22 -53 23 -55 0 -75 8 -75 29 0 9 14 13 44 13 77 0
136 46 136 105 0 39 -15 64 -50 82 -38 20 -68 19 -110 -3z m78 -84 c-2 -18
-11 -24 -35 -26 -37 -4 -41 3 -16 30 24 26 55 24 51 -4z"></path>
    </g>
  </symbol>
  <symbol xmlns="http://www.w3.org/2000/svg" id="heart" viewBox="0 0 24 24">
    <path d="M17.5,1.917a6.4,6.4,0,0,0-5.5,3.3,6.4,6.4,0,0,0-5.5-3.3A6.8,6.8,0,0,0,0,8.967c0,4.547,4.786,9.513,8.8,12.88a4.974,4.974,0,0,0,6.4,0C19.214,18.48,24,13.514,24,8.967A6.8,6.8,0,0,0,17.5,1.917Zm-3.585,18.4a2.973,2.973,0,0,1-3.83,0C4.947,16.006,2,11.87,2,8.967a4.8,4.8,0,0,1,4.5-5.05A4.8,4.8,0,0,1,11,8.967a1,1,0,0,0,2,0,4.8,4.8,0,0,1,4.5-5.05A4.8,4.8,0,0,1,22,8.967C22,11.87,19.053,16.006,13.915,20.313Z"></path>
  </symbol>
  <symbol xmlns="http://www.w3.org/2000/svg" viewBox="0 0 24 24" id="search">
    <g id="_01_align_center">
      <path d="M24,22.586l-6.262-6.262a10.016,10.016,0,1,0-1.414,1.414L22.586,24ZM10,18a8,8,0,1,1,8-8A8.009,8.009,0,0,1,10,18Z"></path>
    </g>
  </symbol>
  <symbol xmlns="http://www.w3.org/2000/svg" id="users-alt" viewBox="0 0 24 24">
    <path d="M12,16a4,4,0,1,1,4-4A4,4,0,0,1,12,16Zm0-6a2,2,0,1,0,2,2A2,2,0,0,0,12,10Zm6,13A6,6,0,0,0,6,23a1,1,0,0,0,2,0,4,4,0,0,1,8,0,1,1,0,0,0,2,0ZM18,8a4,4,0,1,1,4-4A4,4,0,0,1,18,8Zm0-6a2,2,0,1,0,2,2A2,2,0,0,0,18,2Zm6,13a6.006,6.006,0,0,0-6-6,1,1,0,0,0,0,2,4,4,0,0,1,4,4,1,1,0,0,0,2,0ZM6,8a4,4,0,1,1,4-4A4,4,0,0,1,6,8ZM6,2A2,2,0,1,0,8,4,2,2,0,0,0,6,2ZM2,15a4,4,0,0,1,4-4A1,1,0,0,0,6,9a6.006,6.006,0,0,0-6,6,1,1,0,0,0,2,0Z"></path>
  </symbol>
  <symbol xmlns="http://www.w3.org/2000/svg" viewBox="0 0 24 24" id="user">
    <g id="_01_align_center">
      <path d="M21,24H19V18.957A2.96,2.96,0,0,0,16.043,16H7.957A2.96,2.96,0,0,0,5,18.957V24H3V18.957A4.963,4.963,0,0,1,7.957,14h8.086A4.963,4.963,0,0,1,21,18.957Z"></path>
      <path d="M12,12a6,6,0,1,1,6-6A6.006,6.006,0,0,1,12,12ZM12,2a4,4,0,1,0,4,4A4,4,0,0,0,12,2Z"></path>
    </g>
  </symbol>
  <symbol xmlns="http://www.w3.org/2000/svg" id="marker" viewBox="0 0 24 24">
    <path d="M12,6a4,4,0,1,0,4,4A4,4,0,0,0,12,6Zm0,6a2,2,0,1,1,2-2A2,2,0,0,1,12,12Z"></path>
    <path d="M12,24a5.271,5.271,0,0,1-4.311-2.2c-3.811-5.257-5.744-9.209-5.744-11.747a10.055,10.055,0,0,1,20.11,0c0,2.538-1.933,6.49-5.744,11.747A5.271,5.271,0,0,1,12,24ZM12,2.181a7.883,7.883,0,0,0-7.874,7.874c0,2.01,1.893,5.727,5.329,10.466a3.145,3.145,0,0,0,5.09,0c3.436-4.739,5.329-8.456,5.329-10.466A7.883,7.883,0,0,0,12,2.181Z"></path>
  </symbol>
</svg>